<?xml version="1.0" encoding="UTF-8"?>
<svg id="Camada_2" data-name="Camada 2" xmlns="http://www.w3.org/2000/svg" viewBox="0 0 643.59 146.86">
  <defs>
    <style>
      .cls-1 {
        fill: #fff;
      }
    </style>
  </defs>
  <g id="Layer_1" data-name="Layer 1">
    <g>
      <g>
        <circle class="cls-1" cx="6.64" cy="64.77" r="6.64"/>
        <circle class="cls-1" cx="7.04" cy="63.86" r="6.64"/>
        <circle class="cls-1" cx="7.45" cy="62.94" r="6.64"/>
        <circle class="cls-1" cx="7.86" cy="62.03" r="6.64"/>
        <circle class="cls-1" cx="8.27" cy="61.11" r="6.64"/>
        <circle class="cls-1" cx="8.68" cy="60.2" r="6.64"/>
        <circle class="cls-1" cx="9.09" cy="59.28" r="6.64"/>
        <circle class="cls-1" cx="9.5" cy="58.37" r="6.64"/>
        <circle class="cls-1" cx="9.91" cy="57.45" r="6.64"/>
        <circle class="cls-1" cx="10.32" cy="56.54" r="6.64"/>
        <circle class="cls-1" cx="10.73" cy="55.62" r="6.64"/>
        <circle class="cls-1" cx="11.14" cy="54.71" r="6.64"/>
        <circle class="cls-1" cx="11.55" cy="53.79" r="6.64"/>
        <circle class="cls-1" cx="11.96" cy="52.88" r="6.64"/>
        <circle class="cls-1" cx="12.37" cy="51.96" r="6.64"/>
        <circle class="cls-1" cx="12.78" cy="51.05" r="6.64"/>
        <circle class="cls-1" cx="13.19" cy="50.13" r="6.64"/>
        <circle class="cls-1" cx="13.6" cy="49.22" r="6.64"/>
        <circle class="cls-1" cx="14" cy="48.3" r="6.64"/>
        <circle class="cls-1" cx="14.41" cy="47.39" r="6.64"/>
        <circle class="cls-1" cx="14.82" cy="46.47" r="6.64"/>
        <circle class="cls-1" cx="15.23" cy="45.55" r="6.64"/>
        <circle class="cls-1" cx="15.64" cy="44.64" r="6.64"/>
        <circle class="cls-1" cx="16.05" cy="43.72" r="6.64"/>
        <circle class="cls-1" cx="16.46" cy="42.81" r="6.64"/>
        <circle class="cls-1" cx="16.87" cy="41.89" r="6.64"/>
        <circle class="cls-1" cx="17.28" cy="40.98" r="6.64"/>
        <circle class="cls-1" cx="17.69" cy="40.06" r="6.64"/>
        <circle class="cls-1" cx="18.1" cy="39.15" r="6.64"/>
        <circle class="cls-1" cx="18.51" cy="38.23" r="6.64"/>
        <circle class="cls-1" cx="18.92" cy="37.32" r="6.64"/>
        <circle class="cls-1" cx="19.33" cy="36.4" r="6.64"/>
        <circle class="cls-1" cx="19.74" cy="35.49" r="6.64"/>
        <circle class="cls-1" cx="20.15" cy="34.57" r="6.64"/>
        <circle class="cls-1" cx="20.56" cy="33.66" r="6.64"/>
        <circle class="cls-1" cx="20.96" cy="32.74" r="6.64"/>
        <circle class="cls-1" cx="21.37" cy="31.83" r="6.64"/>
        <circle class="cls-1" cx="21.78" cy="30.91" r="6.64"/>
        <circle class="cls-1" cx="22.19" cy="30" r="6.64"/>
        <circle class="cls-1" cx="22.6" cy="29.08" r="6.64"/>
        <circle class="cls-1" cx="23.01" cy="28.17" r="6.64"/>
        <circle class="cls-1" cx="23.42" cy="27.25" r="6.64"/>
        <circle class="cls-1" cx="23.83" cy="26.34" r="6.64"/>
        <circle class="cls-1" cx="24.24" cy="25.42" r="6.64"/>
        <circle class="cls-1" cx="24.65" cy="24.51" r="6.64"/>
        <circle class="cls-1" cx="25.06" cy="23.59" r="6.64"/>
        <circle class="cls-1" cx="25.47" cy="22.68" r="6.64"/>
        <circle class="cls-1" cx="25.88" cy="21.76" r="6.64"/>
        <circle class="cls-1" cx="26.29" cy="20.85" r="6.64"/>
        <circle class="cls-1" cx="26.7" cy="19.93" r="6.64"/>
        <circle class="cls-1" cx="27.11" cy="19.02" r="6.64"/>
        <circle class="cls-1" cx="27.51" cy="18.1" r="6.64"/>
        <circle class="cls-1" cx="27.92" cy="17.19" r="6.64"/>
        <circle class="cls-1" cx="28.33" cy="16.27" r="6.64"/>
        <circle class="cls-1" cx="28.74" cy="15.36" r="6.64"/>
        <circle class="cls-1" cx="29.15" cy="14.44" r="6.64"/>
        <circle class="cls-1" cx="29.56" cy="13.53" r="6.64"/>
        <circle class="cls-1" cx="29.97" cy="12.61" r="6.64"/>
        <circle class="cls-1" cx="30.38" cy="11.7" r="6.64"/>
        <circle class="cls-1" cx="30.79" cy="10.78" r="6.64"/>
        <circle class="cls-1" cx="31.2" cy="9.87" r="6.64"/>
        <circle class="cls-1" cx="31.61" cy="8.95" r="6.64"/>
        <circle class="cls-1" cx="32.02" cy="8.03" r="6.64"/>
        <circle class="cls-1" cx="32.43" cy="7.12" r="6.64"/>
        <circle class="cls-1" cx="33.12" cy="6.64" r="6.64"/>
        <circle class="cls-1" cx="34.12" cy="6.64" r="6.64"/>
        <circle class="cls-1" cx="35.12" cy="6.64" r="6.64"/>
        <circle class="cls-1" cx="36.12" cy="6.64" r="6.64"/>
        <circle class="cls-1" cx="37.13" cy="6.64" r="6.64"/>
        <circle class="cls-1" cx="38.13" cy="6.64" r="6.64"/>
        <circle class="cls-1" cx="39.13" cy="6.64" r="6.64"/>
        <circle class="cls-1" cx="40.13" cy="6.64" r="6.64"/>
        <circle class="cls-1" cx="41.14" cy="6.64" r="6.64"/>
        <circle class="cls-1" cx="42.14" cy="6.64" r="6.64"/>
        <circle class="cls-1" cx="43.14" cy="6.64" r="6.64"/>
        <circle class="cls-1" cx="44.14" cy="6.64" r="6.64"/>
        <circle class="cls-1" cx="45.15" cy="6.64" r="6.64"/>
        <circle class="cls-1" cx="46.15" cy="6.64" r="6.64"/>
        <circle class="cls-1" cx="47.15" cy="6.64" r="6.64"/>
        <circle class="cls-1" cx="48.15" cy="6.64" r="6.64"/>
        <circle class="cls-1" cx="49.16" cy="6.64" r="6.64"/>
        <circle class="cls-1" cx="50.16" cy="6.64" r="6.64"/>
        <circle class="cls-1" cx="51.16" cy="6.64" r="6.64"/>
        <circle class="cls-1" cx="52.16" cy="6.64" r="6.64"/>
        <circle class="cls-1" cx="53.17" cy="6.64" r="6.64"/>
        <circle class="cls-1" cx="54.17" cy="6.64" r="6.64"/>
        <circle class="cls-1" cx="55.17" cy="6.64" r="6.64"/>
        <circle class="cls-1" cx="56.17" cy="6.64" r="6.64"/>
        <circle class="cls-1" cx="57.18" cy="6.64" r="6.64"/>
        <circle class="cls-1" cx="58.18" cy="6.64" r="6.64"/>
        <circle class="cls-1" cx="59.18" cy="6.64" r="6.64"/>
        <circle class="cls-1" cx="60.18" cy="6.64" r="6.64"/>
        <circle class="cls-1" cx="61.19" cy="6.64" r="6.64"/>
        <circle class="cls-1" cx="62.19" cy="6.64" r="6.64"/>
        <circle class="cls-1" cx="63.19" cy="6.64" r="6.64"/>
        <circle class="cls-1" cx="64.19" cy="6.64" r="6.64"/>
        <circle class="cls-1" cx="65.2" cy="6.64" r="6.64"/>
        <circle class="cls-1" cx="66.2" cy="6.64" r="6.64"/>
        <circle class="cls-1" cx="67.2" cy="6.64" r="6.64"/>
        <circle class="cls-1" cx="68.2" cy="6.64" r="6.64"/>
        <circle class="cls-1" cx="69.21" cy="6.64" r="6.64"/>
        <circle class="cls-1" cx="70.21" cy="6.64" r="6.64"/>
        <circle class="cls-1" cx="71.21" cy="6.64" r="6.64"/>
        <circle class="cls-1" cx="72.22" cy="6.64" r="6.64"/>
        <circle class="cls-1" cx="73.22" cy="6.64" r="6.64"/>
        <circle class="cls-1" cx="74.22" cy="6.64" r="6.64"/>
        <circle class="cls-1" cx="75.22" cy="6.64" r="6.64"/>
        <circle class="cls-1" cx="76.23" cy="6.64" r="6.64"/>
        <circle class="cls-1" cx="77.23" cy="6.64" r="6.64"/>
        <circle class="cls-1" cx="78.23" cy="6.64" r="6.64"/>
        <circle class="cls-1" cx="79.23" cy="6.64" r="6.64"/>
        <circle class="cls-1" cx="80.24" cy="6.64" r="6.64"/>
        <circle class="cls-1" cx="81.24" cy="6.64" r="6.64"/>
        <circle class="cls-1" cx="82.24" cy="6.64" r="6.64"/>
        <circle class="cls-1" cx="83.24" cy="6.64" r="6.64"/>
        <circle class="cls-1" cx="84.25" cy="6.64" r="6.64"/>
        <circle class="cls-1" cx="85.25" cy="6.64" r="6.64"/>
        <circle class="cls-1" cx="86.25" cy="6.64" r="6.64"/>
        <circle class="cls-1" cx="87.25" cy="6.64" r="6.64"/>
        <circle class="cls-1" cx="88.26" cy="6.64" r="6.64"/>
        <circle class="cls-1" cx="89.26" cy="6.64" r="6.64"/>
        <circle class="cls-1" cx="90.26" cy="6.64" r="6.64"/>
        <circle class="cls-1" cx="91.26" cy="6.64" r="6.64"/>
        <circle class="cls-1" cx="92.27" cy="6.64" r="6.64"/>
        <circle class="cls-1" cx="92.28" cy="7.26" r="6.64"/>
        <circle class="cls-1" cx="91.85" cy="8.17" r="6.64"/>
        <circle class="cls-1" cx="91.42" cy="9.07" r="6.64"/>
        <circle class="cls-1" cx="90.99" cy="9.98" r="6.64"/>
        <circle class="cls-1" cx="90.56" cy="10.88" r="6.64"/>
        <circle class="cls-1" cx="90.13" cy="11.79" r="6.64"/>
        <circle class="cls-1" cx="89.7" cy="12.69" r="6.64"/>
        <circle class="cls-1" cx="89.27" cy="13.6" r="6.64"/>
        <circle class="cls-1" cx="88.84" cy="14.5" r="6.64"/>
        <circle class="cls-1" cx="88.41" cy="15.41" r="6.64"/>
        <circle class="cls-1" cx="87.98" cy="16.32" r="6.64"/>
        <circle class="cls-1" cx="87.55" cy="17.22" r="6.64"/>
        <circle class="cls-1" cx="87.12" cy="18.13" r="6.64"/>
        <circle class="cls-1" cx="86.68" cy="19.03" r="6.64"/>
        <circle class="cls-1" cx="86.25" cy="19.94" r="6.64"/>
        <circle class="cls-1" cx="85.82" cy="20.84" r="6.64"/>
        <circle class="cls-1" cx="85.39" cy="21.75" r="6.64"/>
        <circle class="cls-1" cx="84.96" cy="22.65" r="6.64"/>
        <circle class="cls-1" cx="84.53" cy="23.56" r="6.64"/>
        <circle class="cls-1" cx="84.1" cy="24.46" r="6.64"/>
        <circle class="cls-1" cx="83.67" cy="25.37" r="6.64"/>
        <circle class="cls-1" cx="83.24" cy="26.28" r="6.64"/>
        <circle class="cls-1" cx="82.81" cy="27.18" r="6.64"/>
        <circle class="cls-1" cx="82.38" cy="28.09" r="6.64"/>
        <circle class="cls-1" cx="81.95" cy="28.99" r="6.64"/>
        <circle class="cls-1" cx="81.52" cy="29.9" r="6.64"/>
        <circle class="cls-1" cx="81.09" cy="30.8" r="6.64"/>
        <circle class="cls-1" cx="80.66" cy="31.71" r="6.64"/>
        <circle class="cls-1" cx="80.23" cy="32.61" r="6.64"/>
        <circle class="cls-1" cx="79.8" cy="33.52" r="6.64"/>
        <circle class="cls-1" cx="79.37" cy="34.42" r="6.64"/>
        <circle class="cls-1" cx="78.94" cy="35.33" r="6.64"/>
        <circle class="cls-1" cx="78.51" cy="36.24" r="6.64"/>
        <circle class="cls-1" cx="78.08" cy="37.14" r="6.64"/>
        <circle class="cls-1" cx="77.65" cy="38.05" r="6.64"/>
        <circle class="cls-1" cx="77.22" cy="38.95" r="6.64"/>
        <circle class="cls-1" cx="76.79" cy="39.86" r="6.64"/>
        <circle class="cls-1" cx="76.36" cy="40.76" r="6.64"/>
        <circle class="cls-1" cx="75.93" cy="41.67" r="6.64"/>
        <circle class="cls-1" cx="75.5" cy="42.57" r="6.64"/>
        <circle class="cls-1" cx="75.07" cy="43.48" r="6.64"/>
        <circle class="cls-1" cx="74.64" cy="44.38" r="6.64"/>
        <circle class="cls-1" cx="74.21" cy="45.29" r="6.64"/>
        <circle class="cls-1" cx="73.77" cy="46.2" r="6.64"/>
        <circle class="cls-1" cx="73.34" cy="47.1" r="6.64"/>
        <circle class="cls-1" cx="72.91" cy="48.01" r="6.64"/>
        <circle class="cls-1" cx="72.48" cy="48.91" r="6.64"/>
        <circle class="cls-1" cx="72.05" cy="49.82" r="6.64"/>
        <circle class="cls-1" cx="71.62" cy="50.72" r="6.64"/>
        <circle class="cls-1" cx="71.19" cy="51.63" r="6.64"/>
        <circle class="cls-1" cx="70.76" cy="52.53" r="6.64"/>
        <circle class="cls-1" cx="70.33" cy="53.44" r="6.64"/>
        <circle class="cls-1" cx="69.9" cy="54.35" r="6.64"/>
        <circle class="cls-1" cx="69.47" cy="55.25" r="6.64"/>
        <circle class="cls-1" cx="69.04" cy="56.16" r="6.64"/>
        <circle class="cls-1" cx="68.61" cy="57.06" r="6.64"/>
        <circle class="cls-1" cx="68.18" cy="57.97" r="6.64"/>
        <circle class="cls-1" cx="67.75" cy="58.87" r="6.64"/>
        <circle class="cls-1" cx="67.32" cy="59.78" r="6.64"/>
        <circle class="cls-1" cx="66.89" cy="60.68" r="6.64"/>
        <circle class="cls-1" cx="66.46" cy="61.59" r="6.64"/>
        <circle class="cls-1" cx="66.03" cy="62.49" r="6.64"/>
        <circle class="cls-1" cx="65.6" cy="63.4" r="6.64"/>
        <circle class="cls-1" cx="65.17" cy="64.31" r="6.64"/>
        <circle class="cls-1" cx="64.74" cy="65.21" r="6.64"/>
        <circle class="cls-1" cx="64.31" cy="66.12" r="6.64"/>
        <circle class="cls-1" cx="63.88" cy="67.02" r="6.64"/>
        <circle class="cls-1" cx="63.45" cy="67.93" r="6.64"/>
        <circle class="cls-1" cx="63.02" cy="68.83" r="6.64"/>
        <circle class="cls-1" cx="62.59" cy="69.74" r="6.64"/>
        <circle class="cls-1" cx="62.16" cy="70.64" r="6.64"/>
        <circle class="cls-1" cx="61.73" cy="71.55" r="6.64"/>
        <circle class="cls-1" cx="61.3" cy="72.45" r="6.64"/>
        <circle class="cls-1" cx="60.87" cy="73.36" r="6.64"/>
        <circle class="cls-1" cx="60.43" cy="74.27" r="6.64"/>
        <circle class="cls-1" cx="60" cy="75.17" r="6.64"/>
        <circle class="cls-1" cx="59.57" cy="76.08" r="6.64"/>
        <circle class="cls-1" cx="59.14" cy="76.98" r="6.64"/>
        <circle class="cls-1" cx="58.71" cy="77.89" r="6.64"/>
        <circle class="cls-1" cx="58.28" cy="78.79" r="6.64"/>
        <circle class="cls-1" cx="57.85" cy="79.7" r="6.64"/>
        <circle class="cls-1" cx="57.42" cy="80.6" r="6.64"/>
        <circle class="cls-1" cx="56.99" cy="81.51" r="6.64"/>
        <circle class="cls-1" cx="56.56" cy="82.41" r="6.64"/>
        <circle class="cls-1" cx="56.13" cy="83.32" r="6.64"/>
        <circle class="cls-1" cx="55.7" cy="84.23" r="6.64"/>
        <circle class="cls-1" cx="55.27" cy="85.13" r="6.64"/>
        <circle class="cls-1" cx="54.84" cy="86.04" r="6.64"/>
        <circle class="cls-1" cx="54.41" cy="86.94" r="6.64"/>
        <circle class="cls-1" cx="53.98" cy="87.85" r="6.64"/>
        <circle class="cls-1" cx="53.55" cy="88.75" r="6.64"/>
        <circle class="cls-1" cx="53.12" cy="89.66" r="6.64"/>
        <circle class="cls-1" cx="52.69" cy="90.56" r="6.64"/>
        <circle class="cls-1" cx="52.26" cy="91.47" r="6.64"/>
        <circle class="cls-1" cx="51.83" cy="92.37" r="6.64"/>
        <circle class="cls-1" cx="51.4" cy="93.28" r="6.64"/>
        <circle class="cls-1" cx="50.97" cy="94.19" r="6.64"/>
        <circle class="cls-1" cx="50.54" cy="95.09" r="6.64"/>
        <circle class="cls-1" cx="50.11" cy="96" r="6.64"/>
        <circle class="cls-1" cx="49.68" cy="96.9" r="6.64"/>
        <circle class="cls-1" cx="49.25" cy="97.81" r="6.64"/>
        <circle class="cls-1" cx="48.82" cy="98.71" r="6.64"/>
        <circle class="cls-1" cx="48.39" cy="99.62" r="6.64"/>
        <circle class="cls-1" cx="47.96" cy="100.52" r="6.64"/>
        <circle class="cls-1" cx="47.52" cy="101.43" r="6.64"/>
        <circle class="cls-1" cx="47.09" cy="102.34" r="6.64"/>
        <circle class="cls-1" cx="46.66" cy="103.24" r="6.64"/>
        <circle class="cls-1" cx="46.23" cy="104.15" r="6.64"/>
        <circle class="cls-1" cx="45.8" cy="105.05" r="6.64"/>
        <circle class="cls-1" cx="45.37" cy="105.96" r="6.64"/>
        <circle class="cls-1" cx="44.94" cy="106.86" r="6.64"/>
        <circle class="cls-1" cx="44.51" cy="107.77" r="6.64"/>
        <circle class="cls-1" cx="44.08" cy="108.67" r="6.64"/>
        <circle class="cls-1" cx="43.65" cy="109.58" r="6.64"/>
        <circle class="cls-1" cx="43.22" cy="110.48" r="6.64"/>
        <circle class="cls-1" cx="42.79" cy="111.39" r="6.64"/>
        <circle class="cls-1" cx="42.36" cy="112.3" r="6.64"/>
        <circle class="cls-1" cx="41.93" cy="113.2" r="6.64"/>
        <circle class="cls-1" cx="41.5" cy="114.11" r="6.64"/>
        <circle class="cls-1" cx="41.07" cy="115.01" r="6.64"/>
        <circle class="cls-1" cx="40.64" cy="115.92" r="6.64"/>
        <circle class="cls-1" cx="40.21" cy="116.82" r="6.64"/>
        <circle class="cls-1" cx="39.78" cy="117.73" r="6.64"/>
        <circle class="cls-1" cx="39.35" cy="118.63" r="6.64"/>
        <circle class="cls-1" cx="38.92" cy="119.54" r="6.64"/>
        <circle class="cls-1" cx="38.49" cy="120.44" r="6.64"/>
        <circle class="cls-1" cx="38.06" cy="121.35" r="6.64"/>
        <circle class="cls-1" cx="37.63" cy="122.26" r="6.64"/>
        <circle class="cls-1" cx="37.2" cy="123.16" r="6.64"/>
        <circle class="cls-1" cx="36.77" cy="124.07" r="6.64"/>
        <circle class="cls-1" cx="36.34" cy="124.97" r="6.64"/>
        <circle class="cls-1" cx="35.91" cy="125.88" r="6.64"/>
        <circle class="cls-1" cx="35.48" cy="126.78" r="6.64"/>
        <circle class="cls-1" cx="35.05" cy="127.69" r="6.64"/>
        <circle class="cls-1" cx="34.61" cy="128.59" r="6.64"/>
        <circle class="cls-1" cx="34.18" cy="129.5" r="6.64"/>
        <circle class="cls-1" cx="33.75" cy="130.4" r="6.64"/>
        <circle class="cls-1" cx="33.32" cy="131.31" r="6.64"/>
        <circle class="cls-1" cx="32.89" cy="132.22" r="6.64"/>
        <circle class="cls-1" cx="32.46" cy="133.12" r="6.64"/>
        <circle class="cls-1" cx="32.03" cy="134.03" r="6.64"/>
        <circle class="cls-1" cx="31.6" cy="134.93" r="6.64"/>
        <circle class="cls-1" cx="31.17" cy="135.84" r="6.64"/>
        <circle class="cls-1" cx="30.74" cy="136.74" r="6.64"/>
        <circle class="cls-1" cx="30.31" cy="137.65" r="6.64"/>
        <circle class="cls-1" cx="29.88" cy="138.55" r="6.64"/>
        <circle class="cls-1" cx="29.45" cy="139.46" r="6.64"/>
        <circle class="cls-1" cx="29.13" cy="140.22" r="6.64"/>
        <circle class="cls-1" cx="29.9" cy="139.58" r="6.64"/>
        <circle class="cls-1" cx="30.67" cy="138.94" r="6.64"/>
        <circle class="cls-1" cx="31.44" cy="138.29" r="6.64"/>
        <circle class="cls-1" cx="32.21" cy="137.65" r="6.64"/>
        <circle class="cls-1" cx="32.98" cy="137.01" r="6.64"/>
        <circle class="cls-1" cx="33.75" cy="136.37" r="6.64"/>
        <circle class="cls-1" cx="34.52" cy="135.72" r="6.64"/>
        <circle class="cls-1" cx="35.29" cy="135.08" r="6.64"/>
        <circle class="cls-1" cx="36.06" cy="134.44" r="6.64"/>
        <circle class="cls-1" cx="36.83" cy="133.8" r="6.64"/>
        <circle class="cls-1" cx="37.6" cy="133.15" r="6.64"/>
        <circle class="cls-1" cx="38.37" cy="132.51" r="6.64"/>
        <circle class="cls-1" cx="39.14" cy="131.87" r="6.64"/>
        <circle class="cls-1" cx="39.91" cy="131.23" r="6.64"/>
        <circle class="cls-1" cx="40.68" cy="130.58" r="6.64"/>
        <circle class="cls-1" cx="41.44" cy="129.94" r="6.64"/>
        <circle class="cls-1" cx="42.21" cy="129.3" r="6.64"/>
        <circle class="cls-1" cx="42.98" cy="128.66" r="6.64"/>
        <circle class="cls-1" cx="43.75" cy="128.01" r="6.64"/>
        <circle class="cls-1" cx="44.52" cy="127.37" r="6.64"/>
        <circle class="cls-1" cx="45.29" cy="126.73" r="6.64"/>
        <circle class="cls-1" cx="46.06" cy="126.09" r="6.64"/>
        <circle class="cls-1" cx="46.83" cy="125.44" r="6.64"/>
        <circle class="cls-1" cx="47.6" cy="124.8" r="6.64"/>
        <circle class="cls-1" cx="48.37" cy="124.16" r="6.64"/>
        <circle class="cls-1" cx="49.14" cy="123.52" r="6.64"/>
        <circle class="cls-1" cx="49.91" cy="122.87" r="6.64"/>
        <circle class="cls-1" cx="50.68" cy="122.23" r="6.64"/>
        <circle class="cls-1" cx="51.45" cy="121.59" r="6.64"/>
        <circle class="cls-1" cx="52.22" cy="120.95" r="6.64"/>
        <circle class="cls-1" cx="52.99" cy="120.3" r="6.64"/>
        <circle class="cls-1" cx="53.76" cy="119.66" r="6.64"/>
        <circle class="cls-1" cx="54.53" cy="119.02" r="6.64"/>
        <circle class="cls-1" cx="55.3" cy="118.38" r="6.64"/>
        <circle class="cls-1" cx="56.07" cy="117.73" r="6.64"/>
        <circle class="cls-1" cx="56.84" cy="117.09" r="6.64"/>
        <circle class="cls-1" cx="57.61" cy="116.45" r="6.64"/>
        <circle class="cls-1" cx="58.37" cy="115.81" r="6.64"/>
        <circle class="cls-1" cx="59.14" cy="115.16" r="6.64"/>
        <circle class="cls-1" cx="59.91" cy="114.52" r="6.64"/>
        <circle class="cls-1" cx="60.68" cy="113.88" r="6.64"/>
        <circle class="cls-1" cx="61.45" cy="113.24" r="6.64"/>
        <circle class="cls-1" cx="62.22" cy="112.59" r="6.64"/>
        <circle class="cls-1" cx="62.99" cy="111.95" r="6.64"/>
        <circle class="cls-1" cx="63.76" cy="111.31" r="6.64"/>
        <circle class="cls-1" cx="64.53" cy="110.67" r="6.64"/>
        <circle class="cls-1" cx="65.3" cy="110.02" r="6.64"/>
        <circle class="cls-1" cx="66.07" cy="109.38" r="6.64"/>
        <circle class="cls-1" cx="66.84" cy="108.74" r="6.64"/>
        <circle class="cls-1" cx="67.61" cy="108.09" r="6.64"/>
        <circle class="cls-1" cx="68.38" cy="107.45" r="6.64"/>
        <circle class="cls-1" cx="69.15" cy="106.81" r="6.64"/>
        <circle class="cls-1" cx="69.92" cy="106.17" r="6.64"/>
        <circle class="cls-1" cx="70.69" cy="105.52" r="6.64"/>
        <circle class="cls-1" cx="71.46" cy="104.88" r="6.64"/>
        <circle class="cls-1" cx="72.23" cy="104.24" r="6.64"/>
        <circle class="cls-1" cx="73" cy="103.6" r="6.64"/>
        <circle class="cls-1" cx="73.77" cy="102.95" r="6.64"/>
        <circle class="cls-1" cx="74.54" cy="102.31" r="6.64"/>
        <circle class="cls-1" cx="75.31" cy="101.67" r="6.64"/>
        <circle class="cls-1" cx="76.07" cy="101.03" r="6.64"/>
        <circle class="cls-1" cx="76.84" cy="100.38" r="6.64"/>
        <circle class="cls-1" cx="77.61" cy="99.74" r="6.64"/>
        <circle class="cls-1" cx="78.38" cy="99.1" r="6.64"/>
        <circle class="cls-1" cx="79.15" cy="98.46" r="6.64"/>
        <circle class="cls-1" cx="79.92" cy="97.81" r="6.64"/>
        <circle class="cls-1" cx="80.69" cy="97.17" r="6.64"/>
        <circle class="cls-1" cx="81.46" cy="96.53" r="6.64"/>
        <circle class="cls-1" cx="82.23" cy="95.89" r="6.64"/>
        <circle class="cls-1" cx="83" cy="95.24" r="6.64"/>
        <circle class="cls-1" cx="83.77" cy="94.6" r="6.64"/>
        <circle class="cls-1" cx="84.54" cy="93.96" r="6.64"/>
        <circle class="cls-1" cx="85.31" cy="93.32" r="6.64"/>
        <circle class="cls-1" cx="86.08" cy="92.67" r="6.64"/>
        <circle class="cls-1" cx="86.85" cy="92.03" r="6.64"/>
        <circle class="cls-1" cx="87.62" cy="91.39" r="6.64"/>
        <circle class="cls-1" cx="88.39" cy="90.75" r="6.64"/>
        <circle class="cls-1" cx="89.16" cy="90.1" r="6.64"/>
        <circle class="cls-1" cx="89.93" cy="89.46" r="6.64"/>
        <circle class="cls-1" cx="90.7" cy="88.82" r="6.64"/>
        <circle class="cls-1" cx="91.47" cy="88.18" r="6.64"/>
        <circle class="cls-1" cx="92.24" cy="87.53" r="6.64"/>
        <circle class="cls-1" cx="93" cy="86.89" r="6.64"/>
        <circle class="cls-1" cx="93.77" cy="86.25" r="6.64"/>
        <circle class="cls-1" cx="94.54" cy="85.61" r="6.64"/>
        <circle class="cls-1" cx="95.31" cy="84.96" r="6.64"/>
        <circle class="cls-1" cx="96.08" cy="84.32" r="6.64"/>
        <circle class="cls-1" cx="96.85" cy="83.68" r="6.64"/>
        <circle class="cls-1" cx="97.62" cy="83.04" r="6.64"/>
        <circle class="cls-1" cx="98.39" cy="82.39" r="6.64"/>
        <circle class="cls-1" cx="99.16" cy="81.75" r="6.64"/>
        <circle class="cls-1" cx="99.93" cy="81.11" r="6.64"/>
        <circle class="cls-1" cx="100.7" cy="80.47" r="6.64"/>
        <circle class="cls-1" cx="101.47" cy="79.82" r="6.64"/>
        <circle class="cls-1" cx="102.24" cy="79.18" r="6.64"/>
        <circle class="cls-1" cx="103.01" cy="78.54" r="6.64"/>
        <circle class="cls-1" cx="103.78" cy="77.9" r="6.64"/>
        <circle class="cls-1" cx="104.55" cy="77.25" r="6.64"/>
        <circle class="cls-1" cx="105.32" cy="76.61" r="6.64"/>
        <circle class="cls-1" cx="106.09" cy="75.97" r="6.64"/>
        <circle class="cls-1" cx="106.86" cy="75.33" r="6.64"/>
        <circle class="cls-1" cx="107.63" cy="74.68" r="6.64"/>
        <circle class="cls-1" cx="108.4" cy="74.04" r="6.64"/>
        <circle class="cls-1" cx="109.17" cy="73.4" r="6.64"/>
        <circle class="cls-1" cx="109.94" cy="72.76" r="6.64"/>
        <circle class="cls-1" cx="110.7" cy="72.11" r="6.64"/>
        <circle class="cls-1" cx="111.47" cy="71.47" r="6.64"/>
        <circle class="cls-1" cx="112.24" cy="70.83" r="6.64"/>
        <circle class="cls-1" cx="113.01" cy="70.19" r="6.64"/>
        <circle class="cls-1" cx="113.78" cy="69.54" r="6.64"/>
        <circle class="cls-1" cx="114.55" cy="68.9" r="6.64"/>
        <circle class="cls-1" cx="115.32" cy="68.26" r="6.64"/>
        <circle class="cls-1" cx="116.09" cy="67.62" r="6.64"/>
        <circle class="cls-1" cx="116.86" cy="66.97" r="6.64"/>
        <circle class="cls-1" cx="117.63" cy="66.33" r="6.64"/>
        <circle class="cls-1" cx="118.4" cy="65.69" r="6.64"/>
        <circle class="cls-1" cx="119.17" cy="65.05" r="6.64"/>
        <circle class="cls-1" cx="118.92" cy="64.77" r="6.64"/>
        <circle class="cls-1" cx="117.92" cy="64.77" r="6.64"/>
        <circle class="cls-1" cx="116.91" cy="64.77" r="6.64"/>
        <circle class="cls-1" cx="115.91" cy="64.77" r="6.64"/>
        <circle class="cls-1" cx="114.91" cy="64.77" r="6.64"/>
        <circle class="cls-1" cx="113.91" cy="64.77" r="6.64"/>
        <circle class="cls-1" cx="112.9" cy="64.77" r="6.64"/>
        <circle class="cls-1" cx="111.9" cy="64.77" r="6.64"/>
        <circle class="cls-1" cx="110.9" cy="64.77" r="6.64"/>
        <circle class="cls-1" cx="109.9" cy="64.77" r="6.64"/>
        <circle class="cls-1" cx="108.89" cy="64.77" r="6.64"/>
        <circle class="cls-1" cx="107.89" cy="64.77" r="6.64"/>
        <circle class="cls-1" cx="106.89" cy="64.77" r="6.64"/>
        <circle class="cls-1" cx="105.89" cy="64.77" r="6.64"/>
        <circle class="cls-1" cx="104.88" cy="64.77" r="6.64"/>
        <circle class="cls-1" cx="103.88" cy="64.77" r="6.64"/>
        <circle class="cls-1" cx="102.88" cy="64.77" r="6.64"/>
        <circle class="cls-1" cx="101.88" cy="64.77" r="6.64"/>
        <circle class="cls-1" cx="100.87" cy="64.77" r="6.64"/>
        <circle class="cls-1" cx="99.87" cy="64.77" r="6.64"/>
        <circle class="cls-1" cx="98.87" cy="64.77" r="6.64"/>
        <circle class="cls-1" cx="97.87" cy="64.77" r="6.64"/>
        <circle class="cls-1" cx="96.86" cy="64.77" r="6.64"/>
        <circle class="cls-1" cx="95.86" cy="64.77" r="6.64"/>
        <circle class="cls-1" cx="94.86" cy="64.77" r="6.64"/>
        <circle class="cls-1" cx="93.86" cy="64.77" r="6.64"/>
        <circle class="cls-1" cx="92.85" cy="64.77" r="6.64"/>
        <circle class="cls-1" cx="91.85" cy="64.77" r="6.64"/>
        <circle class="cls-1" cx="90.85" cy="64.77" r="6.64"/>
        <circle class="cls-1" cx="89.85" cy="64.77" r="6.64"/>
        <circle class="cls-1" cx="88.84" cy="64.77" r="6.64"/>
        <circle class="cls-1" cx="87.84" cy="64.77" r="6.64"/>
        <circle class="cls-1" cx="86.84" cy="64.77" r="6.64"/>
        <circle class="cls-1" cx="85.84" cy="64.77" r="6.64"/>
        <circle class="cls-1" cx="84.83" cy="64.77" r="6.64"/>
        <circle class="cls-1" cx="83.83" cy="64.77" r="6.64"/>
        <circle class="cls-1" cx="82.83" cy="64.77" r="6.64"/>
        <circle class="cls-1" cx="81.83" cy="64.77" r="6.64"/>
        <circle class="cls-1" cx="80.82" cy="64.77" r="6.64"/>
        <circle class="cls-1" cx="79.82" cy="64.77" r="6.64"/>
        <circle class="cls-1" cx="78.82" cy="64.77" r="6.64"/>
        <circle class="cls-1" cx="77.82" cy="64.77" r="6.64"/>
        <circle class="cls-1" cx="76.81" cy="64.77" r="6.64"/>
        <circle class="cls-1" cx="75.81" cy="64.77" r="6.64"/>
        <circle class="cls-1" cx="74.81" cy="64.77" r="6.64"/>
        <circle class="cls-1" cx="73.8" cy="64.77" r="6.64"/>
        <circle class="cls-1" cx="72.8" cy="64.77" r="6.64"/>
        <circle class="cls-1" cx="71.8" cy="64.77" r="6.64"/>
        <circle class="cls-1" cx="70.8" cy="64.77" r="6.64"/>
        <circle class="cls-1" cx="69.79" cy="64.77" r="6.64"/>
        <circle class="cls-1" cx="68.79" cy="64.77" r="6.64"/>
        <circle class="cls-1" cx="67.79" cy="64.77" r="6.64"/>
        <circle class="cls-1" cx="66.79" cy="64.77" r="6.64"/>
        <circle class="cls-1" cx="65.78" cy="64.77" r="6.64"/>
        <circle class="cls-1" cx="64.78" cy="64.77" r="6.64"/>
        <circle class="cls-1" cx="63.78" cy="64.77" r="6.64"/>
        <circle class="cls-1" cx="62.78" cy="64.77" r="6.64"/>
        <circle class="cls-1" cx="61.77" cy="64.77" r="6.64"/>
        <circle class="cls-1" cx="60.77" cy="64.77" r="6.64"/>
        <circle class="cls-1" cx="59.77" cy="64.77" r="6.64"/>
        <circle class="cls-1" cx="58.77" cy="64.77" r="6.64"/>
        <circle class="cls-1" cx="57.76" cy="64.77" r="6.64"/>
        <circle class="cls-1" cx="56.76" cy="64.77" r="6.64"/>
        <circle class="cls-1" cx="55.76" cy="64.77" r="6.64"/>
        <circle class="cls-1" cx="54.76" cy="64.77" r="6.64"/>
        <circle class="cls-1" cx="53.75" cy="64.77" r="6.64"/>
        <circle class="cls-1" cx="52.75" cy="64.77" r="6.64"/>
        <circle class="cls-1" cx="51.75" cy="64.77" r="6.64"/>
        <circle class="cls-1" cx="50.75" cy="64.77" r="6.64"/>
        <circle class="cls-1" cx="49.74" cy="64.77" r="6.64"/>
        <circle class="cls-1" cx="48.74" cy="64.77" r="6.64"/>
        <circle class="cls-1" cx="47.74" cy="64.77" r="6.64"/>
        <circle class="cls-1" cx="46.74" cy="64.77" r="6.64"/>
        <circle class="cls-1" cx="45.73" cy="64.77" r="6.64"/>
        <circle class="cls-1" cx="44.73" cy="64.77" r="6.64"/>
        <circle class="cls-1" cx="43.73" cy="64.77" r="6.64"/>
        <circle class="cls-1" cx="42.73" cy="64.77" r="6.64"/>
        <circle class="cls-1" cx="41.72" cy="64.77" r="6.64"/>
        <circle class="cls-1" cx="40.72" cy="64.77" r="6.64"/>
        <circle class="cls-1" cx="39.72" cy="64.77" r="6.64"/>
        <circle class="cls-1" cx="38.72" cy="64.77" r="6.64"/>
        <circle class="cls-1" cx="37.71" cy="64.77" r="6.64"/>
        <circle class="cls-1" cx="36.71" cy="64.77" r="6.64"/>
        <circle class="cls-1" cx="35.71" cy="64.77" r="6.64"/>
        <circle class="cls-1" cx="34.71" cy="64.77" r="6.64"/>
        <circle class="cls-1" cx="33.7" cy="64.77" r="6.64"/>
        <circle class="cls-1" cx="32.7" cy="64.77" r="6.64"/>
        <circle class="cls-1" cx="31.7" cy="64.77" r="6.64"/>
        <circle class="cls-1" cx="30.7" cy="64.77" r="6.64"/>
        <circle class="cls-1" cx="29.69" cy="64.77" r="6.64"/>
        <circle class="cls-1" cx="28.69" cy="64.77" r="6.64"/>
        <circle class="cls-1" cx="27.69" cy="64.77" r="6.64"/>
        <circle class="cls-1" cx="26.69" cy="64.77" r="6.64"/>
        <circle class="cls-1" cx="25.68" cy="64.77" r="6.64"/>
        <circle class="cls-1" cx="24.68" cy="64.77" r="6.64"/>
        <circle class="cls-1" cx="23.68" cy="64.77" r="6.64"/>
        <circle class="cls-1" cx="22.68" cy="64.77" r="6.64"/>
        <circle class="cls-1" cx="21.67" cy="64.77" r="6.64"/>
        <circle class="cls-1" cx="20.67" cy="64.77" r="6.64"/>
        <circle class="cls-1" cx="19.67" cy="64.77" r="6.64"/>
        <circle class="cls-1" cx="18.67" cy="64.77" r="6.64"/>
        <circle class="cls-1" cx="17.66" cy="64.77" r="6.64"/>
        <circle class="cls-1" cx="16.66" cy="64.77" r="6.64"/>
        <circle class="cls-1" cx="15.66" cy="64.77" r="6.64"/>
        <circle class="cls-1" cx="14.66" cy="64.77" r="6.64"/>
        <circle class="cls-1" cx="13.65" cy="64.77" r="6.64"/>
        <circle class="cls-1" cx="12.65" cy="64.77" r="6.64"/>
        <circle class="cls-1" cx="11.65" cy="64.77" r="6.64"/>
        <circle class="cls-1" cx="10.65" cy="64.77" r="6.64"/>
        <circle class="cls-1" cx="9.64" cy="64.77" r="6.64"/>
        <circle class="cls-1" cx="8.64" cy="64.77" r="6.64"/>
        <circle class="cls-1" cx="7.64" cy="64.77" r="6.64"/>
        <circle class="cls-1" cx="6.64" cy="64.77" r="6.64"/>
      </g>
      <path class="cls-1" d="M190.41,22.52h-25.06c-5.33,0-9.66,4.32-9.66,9.66v56.8c0,5.33,4.32,9.66,9.66,9.66h25.24c20.83,0,37.71-16.88,37.71-37.71v-.51c0-20.84-17.05-37.89-37.89-37.89ZM214.69,60.92c0,13.31-10.79,24.1-24.1,24.1h-21.28v-48.89h21.28c13.31,0,24.1,10.79,24.1,24.1v.69ZM475.57,75.69c0,5.14-4.19,9.33-9.33,9.33h-22.32c-5.14,0-9.33-4.19-9.33-9.33V22.52h-13.61v53.17c0,12.65,10.29,22.94,22.94,22.94h22.32c12.65,0,22.94-10.29,22.94-22.94V22.52h-13.61v53.17ZM409.47,48.75v-3.78c0-12.4-10.05-22.45-22.45-22.45h-36.09c-5.33,0-9.66,4.32-9.66,9.66v39.03h0v27.39h13.61v-27.39h20.69l20.44,27.24h17l-20.88-27.84c9.92-2.32,17.33-11.24,17.33-21.86ZM354.89,57.59v-21.46h32.13c4.88,0,8.84,3.97,8.84,8.84v3.78c0,4.88-3.97,8.84-8.84,8.84h-32.13ZM239.82,98.59h13.61V22.52h-13.61v76.07ZM318.33,62.2l-36.56-15.79c-1.95-.84-3.21-2.76-3.21-4.89,0-2.94,2.39-5.33,5.33-5.33h43.05v-13.61h-43.05c-10.44,0-18.93,8.49-18.93,18.93,0,7.56,4.49,14.38,11.43,17.38l36.56,15.79c1.95.84,3.21,2.76,3.21,4.89,0,2.94-2.39,5.33-5.33,5.33h-44.18v13.61h44.18c10.44,0,18.93-8.49,18.93-18.93,0-7.56-4.49-14.38-11.43-17.38ZM548.64,22.7h-36.09c-5.33,0-9.66,4.32-9.66,9.66v66.26h13.61v-27.24h32.13c12.4,0,22.45-10.05,22.45-22.45v-3.78c0-12.4-10.05-22.45-22.45-22.45ZM557.48,48.93c0,4.88-3.97,8.84-8.84,8.84h-32.13v-21.46h32.13c4.88,0,8.84,3.97,8.84,8.84v3.78ZM606.75,68.46l-14.3,30.16h15.05l36.09-75.91h-15.06l-21.15,44.52M610.54,67.23h-.03l-21.11-44.52h-15.06l19.22,40.47c1.53,3.23,4.79,5.29,8.37,5.29h7.96"/>
    </g>
  </g>
</svg>